<?xml version="1.0" encoding="UTF-8"?>
<svg xmlns="http://www.w3.org/2000/svg" xmlns:xlink="http://www.w3.org/1999/xlink" width="331.2pt" height="360pt" viewBox="0 0 331.2 360" version="1.1" id="Fig:pca"><defs><g><symbol overflow="visible" id="pca-glyph0-0"><path style="stroke:none;" d="M 5.84375 0 L 8.40625 -7.640625 L 8.40625 0 L 9.515625 0 L 9.515625 -9.109375 L 7.90625 -9.109375 L 5.25 -1.171875 L 2.546875 -9.109375 L 0.9375 -9.109375 L 0.9375 0 L 2.03125 0 L 2.03125 -7.640625 L 4.625 0 Z M 5.84375 0 "/></symbol><symbol overflow="visible" id="pca-glyph0-1"><path style="stroke:none;" d="M 1.875 -6.546875 L 0.84375 -6.546875 L 0.84375 0 L 1.875 0 Z M 1.875 -9.109375 L 0.828125 -9.109375 L 0.828125 -7.796875 L 1.875 -7.796875 Z M 1.875 -9.109375 "/></symbol><symbol overflow="visible" id="pca-glyph0-2"><path style="stroke:none;" d="M 5.890625 -4.34375 C 5.84375 -4.984375 5.703125 -5.40625 5.453125 -5.765625 C 5 -6.375 4.21875 -6.734375 3.296875 -6.734375 C 1.53125 -6.734375 0.390625 -5.34375 0.390625 -3.15625 C 0.390625 -1.046875 1.515625 0.28125 3.28125 0.28125 C 4.84375 0.28125 5.84375 -0.65625 5.96875 -2.25 L 4.90625 -2.25 C 4.734375 -1.203125 4.203125 -0.671875 3.3125 -0.671875 C 2.15625 -0.671875 1.46875 -1.609375 1.46875 -3.15625 C 1.46875 -4.796875 2.15625 -5.78125 3.28125 -5.78125 C 4.15625 -5.78125 4.71875 -5.265625 4.84375 -4.34375 Z M 5.890625 -4.34375 "/></symbol><symbol overflow="visible" id="pca-glyph0-3"><path style="stroke:none;" d="M 0.859375 -6.546875 L 0.859375 0 L 1.90625 0 L 1.90625 -3.40625 C 1.90625 -4.34375 2.15625 -4.953125 2.65625 -5.3125 C 2.96875 -5.546875 3.28125 -5.625 4.015625 -5.640625 L 4.015625 -6.703125 C 3.84375 -6.71875 3.75 -6.734375 3.609375 -6.734375 C 2.9375 -6.734375 2.421875 -6.34375 1.828125 -5.359375 L 1.828125 -6.546875 Z M 0.859375 -6.546875 "/></symbol><symbol overflow="visible" id="pca-glyph0-4"><path style="stroke:none;" d="M 3.40625 -6.734375 C 1.5625 -6.734375 0.453125 -5.421875 0.453125 -3.21875 C 0.453125 -1.03125 1.546875 0.28125 3.40625 0.28125 C 5.25 0.28125 6.375 -1.03125 6.375 -3.171875 C 6.375 -5.4375 5.28125 -6.734375 3.40625 -6.734375 Z M 3.40625 -5.78125 C 4.59375 -5.78125 5.28125 -4.8125 5.28125 -3.1875 C 5.28125 -1.65625 4.5625 -0.671875 3.40625 -0.671875 C 2.25 -0.671875 1.53125 -1.640625 1.53125 -3.21875 C 1.53125 -4.796875 2.25 -5.78125 3.40625 -5.78125 Z M 3.40625 -5.78125 "/></symbol><symbol overflow="visible" id="pca-glyph0-5"><path style="stroke:none;" d="M 3.5625 0 L 6.078125 -6.546875 L 4.90625 -6.546875 L 3.046875 -1.234375 L 1.296875 -6.546875 L 0.125 -6.546875 L 2.421875 0 Z M 3.5625 0 "/></symbol><symbol overflow="visible" id="pca-glyph0-6"><path style="stroke:none;" d="M 6.6875 -0.609375 C 6.578125 -0.59375 6.53125 -0.59375 6.46875 -0.59375 C 6.09375 -0.59375 5.90625 -0.78125 5.90625 -1.09375 L 5.90625 -4.953125 C 5.90625 -6.109375 5.046875 -6.734375 3.4375 -6.734375 C 2.484375 -6.734375 1.703125 -6.46875 1.265625 -5.96875 C 0.96875 -5.640625 0.84375 -5.265625 0.8125 -4.609375 L 1.859375 -4.609375 C 1.953125 -5.40625 2.421875 -5.78125 3.40625 -5.78125 C 4.34375 -5.78125 4.859375 -5.421875 4.859375 -4.796875 L 4.859375 -4.53125 C 4.859375 -4.09375 4.59375 -3.90625 3.78125 -3.796875 C 2.296875 -3.609375 2.078125 -3.5625 1.671875 -3.40625 C 0.90625 -3.09375 0.53125 -2.5 0.53125 -1.65625 C 0.53125 -0.46875 1.34375 0.28125 2.671875 0.28125 C 3.5 0.28125 4.15625 0 4.90625 -0.671875 C 4.96875 -0.015625 5.296875 0.28125 5.96875 0.28125 C 6.1875 0.28125 6.34375 0.265625 6.6875 0.171875 Z M 4.859375 -2.0625 C 4.859375 -1.71875 4.765625 -1.5 4.453125 -1.21875 C 4.03125 -0.828125 3.515625 -0.625 2.90625 -0.625 C 2.09375 -0.625 1.609375 -1.015625 1.609375 -1.671875 C 1.609375 -2.359375 2.078125 -2.71875 3.1875 -2.875 C 4.28125 -3.03125 4.515625 -3.078125 4.859375 -3.234375 Z M 4.859375 -2.0625 "/></symbol><symbol overflow="visible" id="pca-glyph0-7"><path style="stroke:none;" d="M 5.46875 -4.71875 C 5.46875 -6.015625 4.609375 -6.734375 3.09375 -6.734375 C 1.578125 -6.734375 0.59375 -5.953125 0.59375 -4.734375 C 0.59375 -3.71875 1.109375 -3.21875 2.65625 -2.84375 L 3.640625 -2.609375 C 4.359375 -2.4375 4.65625 -2.171875 4.65625 -1.703125 C 4.65625 -1.09375 4.03125 -0.671875 3.125 -0.671875 C 2.5625 -0.671875 2.09375 -0.84375 1.828125 -1.109375 C 1.65625 -1.296875 1.59375 -1.484375 1.53125 -1.953125 L 0.421875 -1.953125 C 0.46875 -0.4375 1.328125 0.28125 3.03125 0.28125 C 4.6875 0.28125 5.734375 -0.53125 5.734375 -1.78125 C 5.734375 -2.765625 5.1875 -3.296875 3.890625 -3.609375 L 2.890625 -3.84375 C 2.03125 -4.046875 1.671875 -4.328125 1.671875 -4.78125 C 1.671875 -5.390625 2.21875 -5.78125 3.0625 -5.78125 C 3.90625 -5.78125 4.34375 -5.40625 4.375 -4.71875 Z M 5.46875 -4.71875 "/></symbol><symbol overflow="visible" id="pca-glyph0-8"><path style="stroke:none;" d="M 6.03125 0 L 6.03125 -6.546875 L 4.984375 -6.546875 L 4.984375 -2.84375 C 4.984375 -1.5 4.28125 -0.625 3.203125 -0.625 C 2.375 -0.625 1.84375 -1.125 1.84375 -1.90625 L 1.84375 -6.546875 L 0.8125 -6.546875 L 0.8125 -1.5 C 0.8125 -0.40625 1.625 0.28125 2.90625 0.28125 C 3.859375 0.28125 4.46875 -0.046875 5.09375 -0.90625 L 5.09375 0 Z M 6.03125 0 "/></symbol><symbol overflow="visible" id="pca-glyph0-9"><path style="stroke:none;" d="M 1.90625 -9.109375 L 0.84375 -9.109375 L 0.84375 0 L 1.90625 0 Z M 1.90625 -9.109375 "/></symbol><symbol overflow="visible" id="pca-glyph0-10"><path style="stroke:none;" d=""/></symbol><symbol overflow="visible" id="pca-glyph0-11"><path style="stroke:none;" d="M 2.28125 -4.15625 L 6.640625 -4.15625 L 6.640625 -5.171875 L 2.28125 -5.171875 L 2.28125 -8.09375 L 7.234375 -8.09375 L 7.234375 -9.109375 L 1.125 -9.109375 L 1.125 0 L 2.28125 0 Z M 2.28125 -4.15625 "/></symbol><symbol overflow="visible" id="pca-glyph0-12"><path style="stroke:none;" d="M 5.15625 -6.546875 L 5.15625 -5.59375 C 4.625 -6.375 3.984375 -6.734375 3.15625 -6.734375 C 1.484375 -6.734375 0.359375 -5.28125 0.359375 -3.15625 C 0.359375 -2.09375 0.65625 -1.21875 1.1875 -0.59375 C 1.671875 -0.03125 2.375 0.28125 3.0625 0.28125 C 3.890625 0.28125 4.46875 -0.0625 5.046875 -0.890625 L 5.046875 -0.546875 C 5.046875 0.34375 4.9375 0.875 4.671875 1.234375 C 4.40625 1.625 3.859375 1.84375 3.21875 1.84375 C 2.75 1.84375 2.328125 1.71875 2.03125 1.5 C 1.796875 1.3125 1.703125 1.140625 1.640625 0.75 L 0.578125 0.75 C 0.6875 1.984375 1.65625 2.71875 3.1875 2.71875 C 4.15625 2.71875 5 2.40625 5.421875 1.890625 C 5.921875 1.28125 6.109375 0.46875 6.109375 -1.078125 L 6.109375 -6.546875 Z M 3.265625 -5.78125 C 4.390625 -5.78125 5.046875 -4.828125 5.046875 -3.1875 C 5.046875 -1.625 4.375 -0.671875 3.28125 -0.671875 C 2.140625 -0.671875 1.453125 -1.640625 1.453125 -3.21875 C 1.453125 -4.796875 2.15625 -5.78125 3.265625 -5.78125 Z M 3.265625 -5.78125 "/></symbol><symbol overflow="visible" id="pca-glyph0-13"><path style="stroke:none;" d="M 0.875 -6.546875 L 0.875 0 L 1.921875 0 L 1.921875 -4.109375 C 1.921875 -5.0625 2.609375 -5.828125 3.46875 -5.828125 C 4.234375 -5.828125 4.671875 -5.34375 4.671875 -4.515625 L 4.671875 0 L 5.71875 0 L 5.71875 -4.109375 C 5.71875 -5.0625 6.40625 -5.828125 7.265625 -5.828125 C 8.03125 -5.828125 8.46875 -5.34375 8.46875 -4.515625 L 8.46875 0 L 9.53125 0 L 9.53125 -4.90625 C 9.53125 -6.09375 8.84375 -6.734375 7.625 -6.734375 C 6.75 -6.734375 6.21875 -6.46875 5.609375 -5.734375 C 5.21875 -6.4375 4.703125 -6.734375 3.84375 -6.734375 C 2.96875 -6.734375 2.40625 -6.40625 1.84375 -5.625 L 1.84375 -6.546875 Z M 0.875 -6.546875 "/></symbol><symbol overflow="visible" id="pca-glyph0-14"><path style="stroke:none;" d="M 6.40625 -2.921875 C 6.40625 -3.921875 6.34375 -4.53125 6.15625 -5.015625 C 5.71875 -6.09375 4.71875 -6.734375 3.5 -6.734375 C 1.671875 -6.734375 0.5 -5.34375 0.5 -3.1875 C 0.5 -1.03125 1.640625 0.28125 3.46875 0.28125 C 4.96875 0.28125 6.015625 -0.5625 6.28125 -1.984375 L 5.21875 -1.984375 C 4.9375 -1.125 4.34375 -0.671875 3.515625 -0.671875 C 2.84375 -0.671875 2.28125 -0.96875 1.9375 -1.53125 C 1.6875 -1.90625 1.59375 -2.28125 1.59375 -2.921875 Z M 1.609375 -3.78125 C 1.703125 -4.984375 2.4375 -5.78125 3.484375 -5.78125 C 4.515625 -5.78125 5.296875 -4.921875 5.296875 -3.84375 C 5.296875 -3.828125 5.296875 -3.796875 5.28125 -3.78125 Z M 1.609375 -3.78125 "/></symbol><symbol overflow="visible" id="pca-glyph0-15"><path style="stroke:none;" d="M 0.875 -6.546875 L 0.875 0 L 1.921875 0 L 1.921875 -3.609375 C 1.921875 -4.953125 2.625 -5.828125 3.703125 -5.828125 C 4.53125 -5.828125 5.046875 -5.328125 5.046875 -4.53125 L 5.046875 0 L 6.09375 0 L 6.09375 -4.953125 C 6.09375 -6.03125 5.28125 -6.734375 4.015625 -6.734375 C 3.03125 -6.734375 2.40625 -6.359375 1.84375 -5.453125 L 1.84375 -6.546875 Z M 0.875 -6.546875 "/></symbol><symbol overflow="visible" id="pca-glyph0-16"><path style="stroke:none;" d="M 3.171875 -6.546875 L 2.09375 -6.546875 L 2.09375 -8.34375 L 1.0625 -8.34375 L 1.0625 -6.546875 L 0.171875 -6.546875 L 0.171875 -5.703125 L 1.0625 -5.703125 L 1.0625 -0.75 C 1.0625 -0.09375 1.515625 0.28125 2.328125 0.28125 C 2.578125 0.28125 2.828125 0.265625 3.171875 0.203125 L 3.171875 -0.671875 C 3.03125 -0.640625 2.875 -0.625 2.671875 -0.625 C 2.21875 -0.625 2.09375 -0.75 2.09375 -1.21875 L 2.09375 -5.703125 L 3.171875 -5.703125 Z M 3.171875 -6.546875 "/></symbol><symbol overflow="visible" id="pca-glyph0-17"><path style="stroke:none;" d="M 2.328125 -3.921875 L 5.328125 -3.921875 C 6.359375 -3.921875 6.828125 -3.421875 6.828125 -2.296875 L 6.8125 -1.484375 C 6.8125 -0.921875 6.90625 -0.375 7.078125 0 L 8.484375 0 L 8.484375 -0.28125 C 8.046875 -0.59375 7.96875 -0.90625 7.9375 -2.125 C 7.921875 -3.625 7.6875 -4.078125 6.703125 -4.5 C 7.71875 -5 8.140625 -5.640625 8.140625 -6.671875 C 8.140625 -8.25 7.15625 -9.109375 5.359375 -9.109375 L 1.15625 -9.109375 L 1.15625 0 L 2.328125 0 Z M 2.328125 -4.953125 L 2.328125 -8.09375 L 5.140625 -8.09375 C 5.78125 -8.09375 6.15625 -7.984375 6.453125 -7.734375 C 6.765625 -7.46875 6.921875 -7.0625 6.921875 -6.515625 C 6.921875 -5.4375 6.375 -4.953125 5.140625 -4.953125 Z M 2.328125 -4.953125 "/></symbol><symbol overflow="visible" id="pca-glyph0-18"><path style="stroke:none;" d="M 4.859375 -9.265625 C 2.25 -9.265625 0.46875 -7.34375 0.46875 -4.484375 C 0.46875 -1.640625 2.25 0.28125 4.875 0.28125 C 5.96875 0.28125 6.96875 -0.046875 7.703125 -0.671875 C 8.6875 -1.515625 9.28125 -2.921875 9.28125 -4.40625 C 9.28125 -7.34375 7.53125 -9.265625 4.859375 -9.265625 Z M 4.859375 -8.234375 C 6.84375 -8.234375 8.109375 -6.734375 8.109375 -4.4375 C 8.109375 -2.234375 6.796875 -0.734375 4.875 -0.734375 C 2.9375 -0.734375 1.640625 -2.234375 1.640625 -4.484375 C 1.640625 -6.734375 2.9375 -8.234375 4.859375 -8.234375 Z M 4.859375 -8.234375 "/></symbol><symbol overflow="visible" id="pca-glyph0-19"><path style="stroke:none;" d="M 3.21875 -6.546875 L 2.140625 -6.546875 L 2.140625 -7.578125 C 2.140625 -8.015625 2.390625 -8.234375 2.859375 -8.234375 C 2.953125 -8.234375 2.984375 -8.234375 3.21875 -8.21875 L 3.21875 -9.09375 C 2.984375 -9.140625 2.84375 -9.15625 2.640625 -9.15625 C 1.671875 -9.15625 1.09375 -8.59375 1.09375 -7.65625 L 1.09375 -6.546875 L 0.21875 -6.546875 L 0.21875 -5.703125 L 1.09375 -5.703125 L 1.09375 0 L 2.140625 0 L 2.140625 -5.703125 L 3.21875 -5.703125 Z M 3.21875 -6.546875 "/></symbol><symbol overflow="visible" id="pca-glyph0-20"><path style="stroke:none;" d="M 0.875 -9.109375 L 0.875 0 L 1.90625 0 L 1.90625 -3.609375 C 1.90625 -4.953125 2.609375 -5.828125 3.6875 -5.828125 C 4.03125 -5.828125 4.359375 -5.71875 4.609375 -5.53125 C 4.90625 -5.3125 5.03125 -5 5.03125 -4.53125 L 5.03125 0 L 6.078125 0 L 6.078125 -4.953125 C 6.078125 -6.046875 5.28125 -6.734375 4.015625 -6.734375 C 3.09375 -6.734375 2.53125 -6.453125 1.90625 -5.65625 L 1.90625 -9.109375 Z M 0.875 -9.109375 "/></symbol><symbol overflow="visible" id="pca-glyph0-21"><path style="stroke:none;" d="M 0.984375 0 L 5.09375 0 C 5.96875 0 6.59375 -0.234375 7.09375 -0.765625 C 7.53125 -1.234375 7.78125 -1.890625 7.78125 -2.59375 C 7.78125 -3.703125 7.28125 -4.359375 6.125 -4.8125 C 6.953125 -5.203125 7.390625 -5.875 7.390625 -6.796875 C 7.390625 -7.46875 7.140625 -8.046875 6.65625 -8.46875 C 6.1875 -8.90625 5.5625 -9.109375 4.6875 -9.109375 L 0.984375 -9.109375 Z M 2.15625 -5.1875 L 2.15625 -8.09375 L 4.40625 -8.09375 C 5.046875 -8.09375 5.40625 -8 5.71875 -7.765625 C 6.046875 -7.515625 6.21875 -7.140625 6.21875 -6.640625 C 6.21875 -6.15625 6.046875 -5.765625 5.71875 -5.515625 C 5.40625 -5.28125 5.046875 -5.1875 4.40625 -5.1875 Z M 2.15625 -1.03125 L 2.15625 -4.15625 L 4.984375 -4.15625 C 5.546875 -4.15625 5.921875 -4.03125 6.203125 -3.71875 C 6.46875 -3.4375 6.625 -3.03125 6.625 -2.59375 C 6.625 -2.15625 6.46875 -1.75 6.203125 -1.46875 C 5.921875 -1.15625 5.546875 -1.03125 4.984375 -1.03125 Z M 2.15625 -1.03125 "/></symbol><symbol overflow="visible" id="pca-glyph0-22"><path style="stroke:none;" d="M 2.296875 -3.859375 L 5.15625 -3.859375 C 5.875 -3.859375 6.4375 -4.078125 6.921875 -4.515625 C 7.46875 -5.015625 7.71875 -5.59375 7.71875 -6.4375 C 7.71875 -8.15625 6.703125 -9.109375 4.90625 -9.109375 L 1.140625 -9.109375 L 1.140625 0 L 2.296875 0 Z M 2.296875 -4.890625 L 2.296875 -8.09375 L 4.71875 -8.09375 C 5.84375 -8.09375 6.5 -7.484375 6.5 -6.484375 C 6.5 -5.484375 5.84375 -4.890625 4.71875 -4.890625 Z M 2.296875 -4.890625 "/></symbol><symbol overflow="visible" id="pca-glyph0-23"><path style="stroke:none;" d="M 8.28125 -6.28125 C 7.90625 -8.28125 6.765625 -9.265625 4.765625 -9.265625 C 3.53125 -9.265625 2.546875 -8.875 1.875 -8.125 C 1.046875 -7.21875 0.59375 -5.921875 0.59375 -4.453125 C 0.59375 -2.953125 1.0625 -1.65625 1.921875 -0.78125 C 2.625 -0.046875 3.53125 0.28125 4.71875 0.28125 C 6.9375 0.28125 8.1875 -0.90625 8.46875 -3.328125 L 7.265625 -3.328125 C 7.15625 -2.703125 7.03125 -2.28125 6.84375 -1.90625 C 6.46875 -1.15625 5.703125 -0.734375 4.71875 -0.734375 C 2.90625 -0.734375 1.765625 -2.1875 1.765625 -4.46875 C 1.765625 -6.796875 2.859375 -8.234375 4.625 -8.234375 C 5.359375 -8.234375 6.046875 -8.015625 6.421875 -7.65625 C 6.765625 -7.34375 6.953125 -6.96875 7.09375 -6.28125 Z M 8.28125 -6.28125 "/></symbol><symbol overflow="visible" id="pca-glyph0-24"><path style="stroke:none;" d="M 3.234375 -6.3125 L 3.234375 0 L 4.34375 0 L 4.34375 -8.859375 L 3.609375 -8.859375 C 3.21875 -7.5 2.96875 -7.3125 1.28125 -7.09375 L 1.28125 -6.3125 Z M 3.234375 -6.3125 "/></symbol><symbol overflow="visible" id="pca-glyph1-0"><path style="stroke:none;" d="M -3.859375 -2.296875 L -3.859375 -5.15625 C -3.859375 -5.875 -4.078125 -6.4375 -4.515625 -6.921875 C -5.015625 -7.46875 -5.59375 -7.71875 -6.4375 -7.71875 C -8.15625 -7.71875 -9.109375 -6.703125 -9.109375 -4.90625 L -9.109375 -1.140625 L 0 -1.140625 L 0 -2.296875 Z M -4.890625 -2.296875 L -8.09375 -2.296875 L -8.09375 -4.71875 C -8.09375 -5.84375 -7.484375 -6.5 -6.484375 -6.5 C -5.484375 -6.5 -4.890625 -5.84375 -4.890625 -4.71875 Z M -4.890625 -2.296875 "/></symbol><symbol overflow="visible" id="pca-glyph1-1"><path style="stroke:none;" d="M -6.28125 -8.28125 C -8.28125 -7.90625 -9.265625 -6.765625 -9.265625 -4.765625 C -9.265625 -3.53125 -8.875 -2.546875 -8.125 -1.875 C -7.21875 -1.046875 -5.921875 -0.59375 -4.453125 -0.59375 C -2.953125 -0.59375 -1.65625 -1.0625 -0.78125 -1.921875 C -0.046875 -2.625 0.28125 -3.53125 0.28125 -4.71875 C 0.28125 -6.9375 -0.90625 -8.1875 -3.328125 -8.46875 L -3.328125 -7.265625 C -2.703125 -7.15625 -2.28125 -7.03125 -1.90625 -6.84375 C -1.15625 -6.46875 -0.734375 -5.703125 -0.734375 -4.71875 C -0.734375 -2.90625 -2.1875 -1.765625 -4.46875 -1.765625 C -6.796875 -1.765625 -8.234375 -2.859375 -8.234375 -4.625 C -8.234375 -5.359375 -8.015625 -6.046875 -7.65625 -6.421875 C -7.34375 -6.765625 -6.96875 -6.953125 -6.28125 -7.09375 Z M -6.28125 -8.28125 "/></symbol><symbol overflow="visible" id="pca-glyph1-2"><path style="stroke:none;" d="M -1.09375 -6.328125 L -1.09375 -1.65625 C -1.8125 -1.78125 -2.28125 -2.171875 -2.90625 -3.265625 L -3.59375 -4.515625 C -4.265625 -5.75 -5.171875 -6.390625 -6.265625 -6.390625 C -7 -6.390625 -7.6875 -6.09375 -8.15625 -5.5625 C -8.640625 -5.03125 -8.859375 -4.390625 -8.859375 -3.546875 C -8.859375 -2.421875 -8.46875 -1.59375 -7.71875 -1.09375 C -7.234375 -0.78125 -6.6875 -0.65625 -5.78125 -0.625 L -5.78125 -1.71875 C -6.390625 -1.765625 -6.75 -1.84375 -7.03125 -1.984375 C -7.578125 -2.28125 -7.90625 -2.84375 -7.90625 -3.515625 C -7.90625 -4.515625 -7.1875 -5.265625 -6.234375 -5.265625 C -5.53125 -5.265625 -4.9375 -4.84375 -4.484375 -4.0625 L -3.84375 -2.90625 C -2.78125 -1.0625 -1.953125 -0.53125 0 -0.421875 L 0 -6.328125 Z M -1.09375 -6.328125 "/></symbol><symbol overflow="visible" id="pca-glyph2-0"><path style="stroke:none;" d="M 2.859375 -3.15625 L 0.46875 -3.15625 L 0.46875 -2.421875 L 2.859375 -2.421875 Z M 2.859375 -3.15625 "/></symbol><symbol overflow="visible" id="pca-glyph2-1"><path style="stroke:none;" d="M 2.609375 -5.09375 L 2.609375 0 L 3.5 0 L 3.5 -7.15625 L 2.921875 -7.15625 C 2.609375 -6.0625 2.40625 -5.90625 1.03125 -5.734375 L 1.03125 -5.09375 Z M 2.609375 -5.09375 "/></symbol><symbol overflow="visible" id="pca-glyph2-2"><path style="stroke:none;" d="M 4.796875 -7.15625 L 1.109375 -7.15625 L 0.578125 -3.265625 L 1.390625 -3.265625 C 1.8125 -3.75 2.15625 -3.921875 2.703125 -3.921875 C 3.65625 -3.921875 4.265625 -3.265625 4.265625 -2.203125 C 4.265625 -1.1875 3.671875 -0.5625 2.703125 -0.5625 C 1.921875 -0.5625 1.453125 -0.953125 1.234375 -1.75 L 0.359375 -1.75 C 0.46875 -1.171875 0.578125 -0.890625 0.78125 -0.625 C 1.1875 -0.078125 1.921875 0.234375 2.71875 0.234375 C 4.171875 0.234375 5.171875 -0.8125 5.171875 -2.328125 C 5.171875 -3.75 4.234375 -4.71875 2.859375 -4.71875 C 2.359375 -4.71875 1.953125 -4.578125 1.546875 -4.28125 L 1.828125 -6.28125 L 4.796875 -6.28125 Z M 4.796875 -7.15625 "/></symbol><symbol overflow="visible" id="pca-glyph2-3"><path style="stroke:none;" d="M 2.78125 -7.15625 C 2.109375 -7.15625 1.5 -6.859375 1.125 -6.375 C 0.671875 -5.75 0.4375 -4.78125 0.4375 -3.46875 C 0.4375 -1.046875 1.234375 0.234375 2.78125 0.234375 C 4.296875 0.234375 5.125 -1.046875 5.125 -3.40625 C 5.125 -4.796875 4.890625 -5.71875 4.421875 -6.375 C 4.046875 -6.875 3.453125 -7.15625 2.78125 -7.15625 Z M 2.78125 -6.375 C 3.734375 -6.375 4.203125 -5.40625 4.203125 -3.484375 C 4.203125 -1.453125 3.75 -0.5 2.75 -0.5 C 1.8125 -0.5 1.34375 -1.5 1.34375 -3.453125 C 1.34375 -5.40625 1.8125 -6.375 2.78125 -6.375 Z M 2.78125 -6.375 "/></symbol><symbol overflow="visible" id="pca-glyph2-4"><path style="stroke:none;" d="M 5.109375 -0.875 L 1.34375 -0.875 C 1.4375 -1.46875 1.75 -1.84375 2.640625 -2.359375 L 3.640625 -2.890625 C 4.640625 -3.4375 5.15625 -4.171875 5.15625 -5.0625 C 5.15625 -5.65625 4.921875 -6.203125 4.484375 -6.59375 C 4.0625 -6.96875 3.546875 -7.15625 2.859375 -7.15625 C 1.953125 -7.15625 1.28125 -6.828125 0.890625 -6.234375 C 0.640625 -5.84375 0.53125 -5.40625 0.5 -4.671875 L 1.390625 -4.671875 C 1.421875 -5.15625 1.484375 -5.453125 1.609375 -5.6875 C 1.84375 -6.109375 2.296875 -6.375 2.84375 -6.375 C 3.640625 -6.375 4.25 -5.796875 4.25 -5.03125 C 4.25 -4.46875 3.921875 -3.984375 3.28125 -3.625 L 2.359375 -3.09375 C 0.859375 -2.25 0.421875 -1.578125 0.34375 0 L 5.109375 0 Z M 5.109375 -0.875 "/></symbol></g><clipPath id="pca-clip1"><path d="M 58.316406 103.941406 L 303.195312 103.941406 L 303.195312 264.570312 L 58.316406 264.570312 Z M 58.316406 103.941406 "/></clipPath></defs><g id="surface61"><path style="fill-rule:nonzero;fill:rgb(89.411765%,10.196078%,10.980392%);fill-opacity:1;stroke-width:1;stroke-linecap:round;stroke-linejoin:round;stroke:rgb(0%,0%,0%);stroke-opacity:1;stroke-miterlimit:10;" d="M 71.125 50.953125 L 105.875 50.953125 L 105.875 62.941406 L 71.125 62.941406 Z M 71.125 50.953125 "/><path style="fill-rule:nonzero;fill:rgb(21.568627%,49.411765%,72.156863%);fill-opacity:1;stroke-width:1;stroke-linecap:round;stroke-linejoin:round;stroke:rgb(0%,0%,0%);stroke-opacity:1;stroke-miterlimit:10;" d="M 71.125 62.941406 L 105.875 62.941406 L 105.875 74.929688 L 71.125 74.929688 Z M 71.125 62.941406 "/><g style="fill:rgb(0%,0%,0%);fill-opacity:1;"><use xlink:href="#pca-glyph0-0" x="119.773438" y="61.503906"/><use xlink:href="#pca-glyph0-1" x="130.185974" y="61.503906"/><use xlink:href="#pca-glyph0-2" x="132.960983" y="61.503906"/><use xlink:href="#pca-glyph0-3" x="139.211014" y="61.503906"/><use xlink:href="#pca-glyph0-4" x="143.373535" y="61.503906"/><use xlink:href="#pca-glyph0-5" x="150.323563" y="61.503906"/><use xlink:href="#pca-glyph0-6" x="156.573593" y="61.503906"/><use xlink:href="#pca-glyph0-7" x="163.523621" y="61.503906"/><use xlink:href="#pca-glyph0-2" x="169.773651" y="61.503906"/><use xlink:href="#pca-glyph0-8" x="176.023682" y="61.503906"/><use xlink:href="#pca-glyph0-9" x="182.973709" y="61.503906"/><use xlink:href="#pca-glyph0-6" x="185.748718" y="61.503906"/><use xlink:href="#pca-glyph0-3" x="192.698746" y="61.503906"/><use xlink:href="#pca-glyph0-10" x="196.861267" y="61.503906"/><use xlink:href="#pca-glyph0-11" x="200.336273" y="61.503906"/><use xlink:href="#pca-glyph0-3" x="207.973801" y="61.503906"/><use xlink:href="#pca-glyph0-6" x="212.136322" y="61.503906"/><use xlink:href="#pca-glyph0-12" x="219.086349" y="61.503906"/><use xlink:href="#pca-glyph0-13" x="226.036377" y="61.503906"/><use xlink:href="#pca-glyph0-14" x="236.448914" y="61.503906"/><use xlink:href="#pca-glyph0-15" x="243.398941" y="61.503906"/><use xlink:href="#pca-glyph0-16" x="250.348969" y="61.503906"/><use xlink:href="#pca-glyph0-7" x="253.823975" y="61.503906"/></g><g style="fill:rgb(0%,0%,0%);fill-opacity:1;"><use xlink:href="#pca-glyph0-17" x="119.773438" y="73.492188"/><use xlink:href="#pca-glyph0-14" x="128.798477" y="73.492188"/><use xlink:href="#pca-glyph0-7" x="135.748505" y="73.492188"/><use xlink:href="#pca-glyph0-16" x="141.998535" y="73.492188"/><use xlink:href="#pca-glyph0-10" x="145.473541" y="73.492188"/><use xlink:href="#pca-glyph0-18" x="148.948547" y="73.492188"/><use xlink:href="#pca-glyph0-19" x="158.673584" y="73.492188"/><use xlink:href="#pca-glyph0-10" x="162.14859" y="73.492188"/><use xlink:href="#pca-glyph0-16" x="165.623596" y="73.492188"/><use xlink:href="#pca-glyph0-20" x="169.098602" y="73.492188"/><use xlink:href="#pca-glyph0-14" x="176.04863" y="73.492188"/><use xlink:href="#pca-glyph0-10" x="182.998657" y="73.492188"/><use xlink:href="#pca-glyph0-21" x="186.473663" y="73.492188"/><use xlink:href="#pca-glyph0-3" x="194.811188" y="73.492188"/><use xlink:href="#pca-glyph0-6" x="198.973709" y="73.492188"/><use xlink:href="#pca-glyph0-1" x="205.923737" y="73.492188"/><use xlink:href="#pca-glyph0-15" x="208.698746" y="73.492188"/></g><g style="fill:rgb(0%,0%,0%);fill-opacity:1;"><use xlink:href="#pca-glyph0-22" x="168.097656" y="303.046875"/><use xlink:href="#pca-glyph0-23" x="176.435181" y="303.046875"/><use xlink:href="#pca-glyph0-24" x="185.46022" y="303.046875"/></g><g style="fill:rgb(0%,0%,0%);fill-opacity:1;"><use xlink:href="#pca-glyph1-0" x="15.109375" y="195.910156"/><use xlink:href="#pca-glyph1-1" x="15.109375" y="187.572632"/><use xlink:href="#pca-glyph1-2" x="15.109375" y="178.547592"/></g><path style="fill:none;stroke-width:1;stroke-linecap:round;stroke-linejoin:round;stroke:rgb(0%,0%,0%);stroke-opacity:1;stroke-miterlimit:10;" d="M 102.4375 103.941406 L 102.4375 98.269531 "/><path style="fill:none;stroke-width:1;stroke-linecap:round;stroke-linejoin:round;stroke:rgb(0%,0%,0%);stroke-opacity:1;stroke-miterlimit:10;" d="M 158.078125 103.941406 L 158.078125 98.269531 "/><path style="fill:none;stroke-width:1;stroke-linecap:round;stroke-linejoin:round;stroke:rgb(0%,0%,0%);stroke-opacity:1;stroke-miterlimit:10;" d="M 213.722656 103.941406 L 213.722656 98.269531 "/><path style="fill:none;stroke-width:1;stroke-linecap:round;stroke-linejoin:round;stroke:rgb(0%,0%,0%);stroke-opacity:1;stroke-miterlimit:10;" d="M 269.363281 103.941406 L 269.363281 98.269531 "/><path style="fill:none;stroke-width:1;stroke-linecap:round;stroke-linejoin:round;stroke:rgb(0%,0%,0%);stroke-opacity:1;stroke-miterlimit:10;" d="M 58.316406 258.277344 L 52.644531 258.277344 "/><path style="fill:none;stroke-width:1;stroke-linecap:round;stroke-linejoin:round;stroke:rgb(0%,0%,0%);stroke-opacity:1;stroke-miterlimit:10;" d="M 58.316406 230.457031 L 52.644531 230.457031 "/><path style="fill:none;stroke-width:1;stroke-linecap:round;stroke-linejoin:round;stroke:rgb(0%,0%,0%);stroke-opacity:1;stroke-miterlimit:10;" d="M 58.316406 202.636719 L 52.644531 202.636719 "/><path style="fill:none;stroke-width:1;stroke-linecap:round;stroke-linejoin:round;stroke:rgb(0%,0%,0%);stroke-opacity:1;stroke-miterlimit:10;" d="M 58.316406 174.8125 L 52.644531 174.8125 "/><path style="fill:none;stroke-width:1;stroke-linecap:round;stroke-linejoin:round;stroke:rgb(0%,0%,0%);stroke-opacity:1;stroke-miterlimit:10;" d="M 58.316406 146.992188 L 52.644531 146.992188 "/><path style="fill:none;stroke-width:1;stroke-linecap:round;stroke-linejoin:round;stroke:rgb(0%,0%,0%);stroke-opacity:1;stroke-miterlimit:10;" d="M 58.316406 119.171875 L 52.644531 119.171875 "/><g style="fill:rgb(0%,0%,0%);fill-opacity:1;"><use xlink:href="#pca-glyph2-0" x="26.777344" y="261.957031"/><use xlink:href="#pca-glyph2-1" x="30.13855" y="261.957031"/><use xlink:href="#pca-glyph2-2" x="35.750641" y="261.957031"/><use xlink:href="#pca-glyph2-3" x="41.362732" y="261.957031"/></g><g style="fill:rgb(0%,0%,0%);fill-opacity:1;"><use xlink:href="#pca-glyph2-0" x="26.777344" y="234.136719"/><use xlink:href="#pca-glyph2-1" x="30.13855" y="234.136719"/><use xlink:href="#pca-glyph2-3" x="35.750641" y="234.136719"/><use xlink:href="#pca-glyph2-3" x="41.362732" y="234.136719"/></g><g style="fill:rgb(0%,0%,0%);fill-opacity:1;"><use xlink:href="#pca-glyph2-0" x="32.390625" y="206.316406"/><use xlink:href="#pca-glyph2-2" x="35.751831" y="206.316406"/><use xlink:href="#pca-glyph2-3" x="41.363922" y="206.316406"/></g><g style="fill:rgb(0%,0%,0%);fill-opacity:1;"><use xlink:href="#pca-glyph2-3" x="41.363281" y="178.492188"/></g><g style="fill:rgb(0%,0%,0%);fill-opacity:1;"><use xlink:href="#pca-glyph2-2" x="35.753906" y="150.671875"/><use xlink:href="#pca-glyph2-3" x="41.365997" y="150.671875"/></g><g style="fill:rgb(0%,0%,0%);fill-opacity:1;"><use xlink:href="#pca-glyph2-1" x="30.140625" y="122.851562"/><use xlink:href="#pca-glyph2-3" x="35.752716" y="122.851562"/><use xlink:href="#pca-glyph2-3" x="41.364807" y="122.851562"/></g><path style="fill:none;stroke-width:1;stroke-linecap:round;stroke-linejoin:round;stroke:rgb(0%,0%,0%);stroke-opacity:1;stroke-miterlimit:10;" d="M 102.4375 263.570312 L 102.4375 269.238281 "/><path style="fill:none;stroke-width:1;stroke-linecap:round;stroke-linejoin:round;stroke:rgb(0%,0%,0%);stroke-opacity:1;stroke-miterlimit:10;" d="M 158.078125 263.570312 L 158.078125 269.238281 "/><path style="fill:none;stroke-width:1;stroke-linecap:round;stroke-linejoin:round;stroke:rgb(0%,0%,0%);stroke-opacity:1;stroke-miterlimit:10;" d="M 213.722656 263.570312 L 213.722656 269.238281 "/><path style="fill:none;stroke-width:1;stroke-linecap:round;stroke-linejoin:round;stroke:rgb(0%,0%,0%);stroke-opacity:1;stroke-miterlimit:10;" d="M 269.363281 263.570312 L 269.363281 269.238281 "/><g style="fill:rgb(0%,0%,0%);fill-opacity:1;"><use xlink:href="#pca-glyph2-0" x="92.339844" y="282.265625"/><use xlink:href="#pca-glyph2-1" x="95.70105" y="282.265625"/><use xlink:href="#pca-glyph2-3" x="101.313141" y="282.265625"/><use xlink:href="#pca-glyph2-3" x="106.925232" y="282.265625"/></g><g style="fill:rgb(0%,0%,0%);fill-opacity:1;"><use xlink:href="#pca-glyph2-3" x="155.273438" y="282.265625"/></g><g style="fill:rgb(0%,0%,0%);fill-opacity:1;"><use xlink:href="#pca-glyph2-1" x="205.304688" y="282.265625"/><use xlink:href="#pca-glyph2-3" x="210.916779" y="282.265625"/><use xlink:href="#pca-glyph2-3" x="216.52887" y="282.265625"/></g><g style="fill:rgb(0%,0%,0%);fill-opacity:1;"><use xlink:href="#pca-glyph2-4" x="260.945312" y="282.265625"/><use xlink:href="#pca-glyph2-3" x="266.557404" y="282.265625"/><use xlink:href="#pca-glyph2-3" x="272.169495" y="282.265625"/></g><path style="fill:none;stroke-width:1;stroke-linecap:round;stroke-linejoin:round;stroke:rgb(0%,0%,0%);stroke-opacity:1;stroke-miterlimit:10;" d="M 302.191406 258.277344 L 307.863281 258.277344 "/><path style="fill:none;stroke-width:1;stroke-linecap:round;stroke-linejoin:round;stroke:rgb(0%,0%,0%);stroke-opacity:1;stroke-miterlimit:10;" d="M 302.191406 230.457031 L 307.863281 230.457031 "/><path style="fill:none;stroke-width:1;stroke-linecap:round;stroke-linejoin:round;stroke:rgb(0%,0%,0%);stroke-opacity:1;stroke-miterlimit:10;" d="M 302.191406 202.636719 L 307.863281 202.636719 "/><path style="fill:none;stroke-width:1;stroke-linecap:round;stroke-linejoin:round;stroke:rgb(0%,0%,0%);stroke-opacity:1;stroke-miterlimit:10;" d="M 302.191406 174.8125 L 307.863281 174.8125 "/><path style="fill:none;stroke-width:1;stroke-linecap:round;stroke-linejoin:round;stroke:rgb(0%,0%,0%);stroke-opacity:1;stroke-miterlimit:10;" d="M 302.191406 146.992188 L 307.863281 146.992188 "/><path style="fill:none;stroke-width:1;stroke-linecap:round;stroke-linejoin:round;stroke:rgb(0%,0%,0%);stroke-opacity:1;stroke-miterlimit:10;" d="M 302.191406 119.171875 L 307.863281 119.171875 "/><g clip-path="url(#pca-clip1)" clip-rule="nonzero" type="plot-region" class="plot-region"><path d="M 113.207031 253.769531 C 113.207031 258.433594 106.207031 258.433594 106.207031 253.769531 C 106.207031 249.101562 113.207031 249.101562 113.207031 253.769531 " type="plot-point" class="aqm1" onclick="plotObjRespond('click', 1, 'pca')" onmouseover="plotObjRespond('show', 1, 'pca')" onmouseout="plotObjRespond('hide', 1, 'pca')" fill-rule="nonzero" fill="rgb(89.411765%,10.196078%,10.980392%)" fill-opacity="1" stroke-width="1" stroke-linecap="round" stroke-linejoin="round" stroke="rgb(89.411765%,10.196078%,10.980392%)" stroke-opacity="1" stroke-miterlimit="10"/><path d="M 287.667969 161.285156 C 287.667969 165.953125 280.667969 165.953125 280.667969 161.285156 C 280.667969 156.621094 287.667969 156.621094 287.667969 161.285156 " type="plot-point" class="aqm2" onclick="plotObjRespond('click', 2, 'pca')" onmouseover="plotObjRespond('show', 2, 'pca')" onmouseout="plotObjRespond('hide', 2, 'pca')" fill-rule="nonzero" fill="rgb(21.568627%,49.411765%,72.156863%)" fill-opacity="1" stroke-width="1" stroke-linecap="round" stroke-linejoin="round" stroke="rgb(21.568627%,49.411765%,72.156863%)" stroke-opacity="1" stroke-miterlimit="10"/><path d="M 121.878906 243.582031 C 121.878906 248.25 114.878906 248.25 114.878906 243.582031 C 114.878906 238.917969 121.878906 238.917969 121.878906 243.582031 " type="plot-point" class="aqm3" onclick="plotObjRespond('click', 3, 'pca')" onmouseover="plotObjRespond('show', 3, 'pca')" onmouseout="plotObjRespond('hide', 3, 'pca')" fill-rule="nonzero" fill="rgb(89.411765%,10.196078%,10.980392%)" fill-opacity="1" stroke-width="1" stroke-linecap="round" stroke-linejoin="round" stroke="rgb(89.411765%,10.196078%,10.980392%)" stroke-opacity="1" stroke-miterlimit="10"/><path d="M 285.21875 162.972656 C 285.21875 167.636719 278.21875 167.636719 278.21875 162.972656 C 278.21875 158.304688 285.21875 158.304688 285.21875 162.972656 " type="plot-point" class="aqm4" onclick="plotObjRespond('click', 4, 'pca')" onmouseover="plotObjRespond('show', 4, 'pca')" onmouseout="plotObjRespond('hide', 4, 'pca')" fill-rule="nonzero" fill="rgb(21.568627%,49.411765%,72.156863%)" fill-opacity="1" stroke-width="1" stroke-linecap="round" stroke-linejoin="round" stroke="rgb(21.568627%,49.411765%,72.156863%)" stroke-opacity="1" stroke-miterlimit="10"/><path d="M 120.613281 240.214844 C 120.613281 244.882812 113.613281 244.882812 113.613281 240.214844 C 113.613281 235.550781 120.613281 235.550781 120.613281 240.214844 " type="plot-point" class="aqm5" onclick="plotObjRespond('click', 5, 'pca')" onmouseover="plotObjRespond('show', 5, 'pca')" onmouseout="plotObjRespond('hide', 5, 'pca')" fill-rule="nonzero" fill="rgb(89.411765%,10.196078%,10.980392%)" fill-opacity="1" stroke-width="1" stroke-linecap="round" stroke-linejoin="round" stroke="rgb(89.411765%,10.196078%,10.980392%)" stroke-opacity="1" stroke-miterlimit="10"/><path d="M 290.71875 159.570312 C 290.71875 164.234375 283.71875 164.234375 283.71875 159.570312 C 283.71875 154.902344 290.71875 154.902344 290.71875 159.570312 " type="plot-point" class="aqm6" onclick="plotObjRespond('click', 6, 'pca')" onmouseover="plotObjRespond('show', 6, 'pca')" onmouseout="plotObjRespond('hide', 6, 'pca')" fill-rule="nonzero" fill="rgb(21.568627%,49.411765%,72.156863%)" fill-opacity="1" stroke-width="1" stroke-linecap="round" stroke-linejoin="round" stroke="rgb(21.568627%,49.411765%,72.156863%)" stroke-opacity="1" stroke-miterlimit="10"/><path d="M 79.15625 113.742188 C 79.15625 118.410156 72.15625 118.410156 72.15625 113.742188 C 72.15625 109.074219 79.15625 109.074219 79.15625 113.742188 " type="plot-point" class="aqm7" onclick="plotObjRespond('click', 7, 'pca')" onmouseover="plotObjRespond('show', 7, 'pca')" onmouseout="plotObjRespond('hide', 7, 'pca')" fill-rule="nonzero" fill="rgb(89.411765%,10.196078%,10.980392%)" fill-opacity="1" stroke-width="1" stroke-linecap="round" stroke-linejoin="round" stroke="rgb(89.411765%,10.196078%,10.980392%)" stroke-opacity="1" stroke-miterlimit="10"/><path d="M 76.789062 116.277344 C 76.789062 120.945312 69.789062 120.945312 69.789062 116.277344 C 69.789062 111.613281 76.789062 111.613281 76.789062 116.277344 " type="plot-point" class="aqm8" onclick="plotObjRespond('click', 8, 'pca')" onmouseover="plotObjRespond('show', 8, 'pca')" onmouseout="plotObjRespond('hide', 8, 'pca')" fill-rule="nonzero" fill="rgb(89.411765%,10.196078%,10.980392%)" fill-opacity="1" stroke-width="1" stroke-linecap="round" stroke-linejoin="round" stroke="rgb(89.411765%,10.196078%,10.980392%)" stroke-opacity="1" stroke-miterlimit="10"/><path d="M 78.960938 121.914062 C 78.960938 126.578125 71.960938 126.578125 71.960938 121.914062 C 71.960938 117.246094 78.960938 117.246094 78.960938 121.914062 " type="plot-point" class="aqm9" onclick="plotObjRespond('click', 9, 'pca')" onmouseover="plotObjRespond('show', 9, 'pca')" onmouseout="plotObjRespond('hide', 9, 'pca')" fill-rule="nonzero" fill="rgb(89.411765%,10.196078%,10.980392%)" fill-opacity="1" stroke-width="1" stroke-linecap="round" stroke-linejoin="round" stroke="rgb(89.411765%,10.196078%,10.980392%)" stroke-opacity="1" stroke-miterlimit="10"/></g><path style="fill:none;stroke-width:1;stroke-linecap:round;stroke-linejoin:round;stroke:rgb(0%,0%,0%);stroke-opacity:1;stroke-miterlimit:10;" d="M 58.316406 103.941406 L 302.195312 103.941406 L 302.195312 263.570312 L 58.316406 263.570312 Z M 58.316406 103.941406 "/></g></svg>
