<?xml version="1.0" encoding="UTF-8"?>
<svg xmlns="http://www.w3.org/2000/svg" xmlns:xlink="http://www.w3.org/1999/xlink" width="365.546373pt" height="394.346373pt" viewBox="0 0 365.546373 394.346373" version="1.1" id="Fig:pca"><defs><g><symbol overflow="visible" id="pca-glyph0-0"><path style="stroke:none;" d="M 0.671875 -9.109375 L 0.671875 0 L 1.609375 0 L 1.609375 -0.84375 C 2.109375 -0.078125 2.78125 0.28125 3.6875 0.28125 C 5.40625 0.28125 6.53125 -1.125 6.53125 -3.296875 C 6.53125 -5.421875 5.46875 -6.734375 3.734375 -6.734375 C 2.84375 -6.734375 2.203125 -6.40625 1.71875 -5.65625 L 1.71875 -9.109375 Z M 3.53125 -5.765625 C 4.703125 -5.765625 5.453125 -4.75 5.453125 -3.1875 C 5.453125 -1.703125 4.671875 -0.6875 3.53125 -0.6875 C 2.4375 -0.6875 1.71875 -1.6875 1.71875 -3.21875 C 1.71875 -4.765625 2.4375 -5.765625 3.53125 -5.765625 Z M 3.53125 -5.765625 "/></symbol><symbol overflow="visible" id="pca-glyph0-1"><path style="stroke:none;" d="M 0.859375 -6.546875 L 0.859375 0 L 1.90625 0 L 1.90625 -3.40625 C 1.90625 -4.34375 2.15625 -4.953125 2.65625 -5.3125 C 2.96875 -5.546875 3.28125 -5.625 4.015625 -5.640625 L 4.015625 -6.703125 C 3.84375 -6.71875 3.75 -6.734375 3.609375 -6.734375 C 2.9375 -6.734375 2.421875 -6.34375 1.828125 -5.359375 L 1.828125 -6.546875 Z M 0.859375 -6.546875 "/></symbol><symbol overflow="visible" id="pca-glyph0-2"><path style="stroke:none;" d="M 6.6875 -0.609375 C 6.578125 -0.59375 6.53125 -0.59375 6.46875 -0.59375 C 6.09375 -0.59375 5.90625 -0.78125 5.90625 -1.09375 L 5.90625 -4.953125 C 5.90625 -6.109375 5.046875 -6.734375 3.4375 -6.734375 C 2.484375 -6.734375 1.703125 -6.46875 1.265625 -5.96875 C 0.96875 -5.640625 0.84375 -5.265625 0.8125 -4.609375 L 1.859375 -4.609375 C 1.953125 -5.40625 2.421875 -5.78125 3.40625 -5.78125 C 4.34375 -5.78125 4.859375 -5.421875 4.859375 -4.796875 L 4.859375 -4.53125 C 4.859375 -4.09375 4.59375 -3.90625 3.78125 -3.796875 C 2.296875 -3.609375 2.078125 -3.5625 1.671875 -3.40625 C 0.90625 -3.09375 0.53125 -2.5 0.53125 -1.65625 C 0.53125 -0.46875 1.34375 0.28125 2.671875 0.28125 C 3.5 0.28125 4.15625 0 4.90625 -0.671875 C 4.96875 -0.015625 5.296875 0.28125 5.96875 0.28125 C 6.1875 0.28125 6.34375 0.265625 6.6875 0.171875 Z M 4.859375 -2.0625 C 4.859375 -1.71875 4.765625 -1.5 4.453125 -1.21875 C 4.03125 -0.828125 3.515625 -0.625 2.90625 -0.625 C 2.09375 -0.625 1.609375 -1.015625 1.609375 -1.671875 C 1.609375 -2.359375 2.078125 -2.71875 3.1875 -2.875 C 4.28125 -3.03125 4.515625 -3.078125 4.859375 -3.234375 Z M 4.859375 -2.0625 "/></symbol><symbol overflow="visible" id="pca-glyph0-3"><path style="stroke:none;" d="M 1.875 -6.546875 L 0.84375 -6.546875 L 0.84375 0 L 1.875 0 Z M 1.875 -9.109375 L 0.828125 -9.109375 L 0.828125 -7.796875 L 1.875 -7.796875 Z M 1.875 -9.109375 "/></symbol><symbol overflow="visible" id="pca-glyph0-4"><path style="stroke:none;" d="M 0.875 -6.546875 L 0.875 0 L 1.921875 0 L 1.921875 -3.609375 C 1.921875 -4.953125 2.625 -5.828125 3.703125 -5.828125 C 4.53125 -5.828125 5.046875 -5.328125 5.046875 -4.53125 L 5.046875 0 L 6.09375 0 L 6.09375 -4.953125 C 6.09375 -6.03125 5.28125 -6.734375 4.015625 -6.734375 C 3.03125 -6.734375 2.40625 -6.359375 1.84375 -5.453125 L 1.84375 -6.546875 Z M 0.875 -6.546875 "/></symbol><symbol overflow="visible" id="pca-glyph0-5"><path style="stroke:none;" d="M 1.90625 -9.109375 L 0.84375 -9.109375 L 0.84375 0 L 1.90625 0 Z M 1.90625 -9.109375 "/></symbol><symbol overflow="visible" id="pca-glyph0-6"><path style="stroke:none;" d="M 3.5625 0 L 6.078125 -6.546875 L 4.90625 -6.546875 L 3.046875 -1.234375 L 1.296875 -6.546875 L 0.125 -6.546875 L 2.421875 0 Z M 3.5625 0 "/></symbol><symbol overflow="visible" id="pca-glyph0-7"><path style="stroke:none;" d="M 6.40625 -2.921875 C 6.40625 -3.921875 6.34375 -4.53125 6.15625 -5.015625 C 5.71875 -6.09375 4.71875 -6.734375 3.5 -6.734375 C 1.671875 -6.734375 0.5 -5.34375 0.5 -3.1875 C 0.5 -1.03125 1.640625 0.28125 3.46875 0.28125 C 4.96875 0.28125 6.015625 -0.5625 6.28125 -1.984375 L 5.21875 -1.984375 C 4.9375 -1.125 4.34375 -0.671875 3.515625 -0.671875 C 2.84375 -0.671875 2.28125 -0.96875 1.9375 -1.53125 C 1.6875 -1.90625 1.59375 -2.28125 1.59375 -2.921875 Z M 1.609375 -3.78125 C 1.703125 -4.984375 2.4375 -5.78125 3.484375 -5.78125 C 4.515625 -5.78125 5.296875 -4.921875 5.296875 -3.84375 C 5.296875 -3.828125 5.296875 -3.796875 5.28125 -3.78125 Z M 1.609375 -3.78125 "/></symbol><symbol overflow="visible" id="pca-glyph0-8"><path style="stroke:none;" d="M 2.859375 -9.109375 L -0.09375 0.25 L 0.59375 0.25 L 3.546875 -9.109375 Z M 2.859375 -9.109375 "/></symbol><symbol overflow="visible" id="pca-glyph0-9"><path style="stroke:none;" d="M 6.03125 0 L 6.03125 -6.546875 L 4.984375 -6.546875 L 4.984375 -2.84375 C 4.984375 -1.5 4.28125 -0.625 3.203125 -0.625 C 2.375 -0.625 1.84375 -1.125 1.84375 -1.90625 L 1.84375 -6.546875 L 0.8125 -6.546875 L 0.8125 -1.5 C 0.8125 -0.40625 1.625 0.28125 2.90625 0.28125 C 3.859375 0.28125 4.46875 -0.046875 5.09375 -0.90625 L 5.09375 0 Z M 6.03125 0 "/></symbol><symbol overflow="visible" id="pca-glyph0-10"><path style="stroke:none;" d="M 5.15625 -6.546875 L 5.15625 -5.59375 C 4.625 -6.375 3.984375 -6.734375 3.15625 -6.734375 C 1.484375 -6.734375 0.359375 -5.28125 0.359375 -3.15625 C 0.359375 -2.09375 0.65625 -1.21875 1.1875 -0.59375 C 1.671875 -0.03125 2.375 0.28125 3.0625 0.28125 C 3.890625 0.28125 4.46875 -0.0625 5.046875 -0.890625 L 5.046875 -0.546875 C 5.046875 0.34375 4.9375 0.875 4.671875 1.234375 C 4.40625 1.625 3.859375 1.84375 3.21875 1.84375 C 2.75 1.84375 2.328125 1.71875 2.03125 1.5 C 1.796875 1.3125 1.703125 1.140625 1.640625 0.75 L 0.578125 0.75 C 0.6875 1.984375 1.65625 2.71875 3.1875 2.71875 C 4.15625 2.71875 5 2.40625 5.421875 1.890625 C 5.921875 1.28125 6.109375 0.46875 6.109375 -1.078125 L 6.109375 -6.546875 Z M 3.265625 -5.78125 C 4.390625 -5.78125 5.046875 -4.828125 5.046875 -3.1875 C 5.046875 -1.625 4.375 -0.671875 3.28125 -0.671875 C 2.140625 -0.671875 1.453125 -1.640625 1.453125 -3.21875 C 1.453125 -4.796875 2.15625 -5.78125 3.265625 -5.78125 Z M 3.265625 -5.78125 "/></symbol><symbol overflow="visible" id="pca-glyph0-11"><path style="stroke:none;" d="M 2.296875 -3.859375 L 5.15625 -3.859375 C 5.875 -3.859375 6.4375 -4.078125 6.921875 -4.515625 C 7.46875 -5.015625 7.71875 -5.59375 7.71875 -6.4375 C 7.71875 -8.15625 6.703125 -9.109375 4.90625 -9.109375 L 1.140625 -9.109375 L 1.140625 0 L 2.296875 0 Z M 2.296875 -4.890625 L 2.296875 -8.09375 L 4.71875 -8.09375 C 5.84375 -8.09375 6.5 -7.484375 6.5 -6.484375 C 6.5 -5.484375 5.84375 -4.890625 4.71875 -4.890625 Z M 2.296875 -4.890625 "/></symbol><symbol overflow="visible" id="pca-glyph0-12"><path style="stroke:none;" d="M 8.28125 -6.28125 C 7.90625 -8.28125 6.765625 -9.265625 4.765625 -9.265625 C 3.53125 -9.265625 2.546875 -8.875 1.875 -8.125 C 1.046875 -7.21875 0.59375 -5.921875 0.59375 -4.453125 C 0.59375 -2.953125 1.0625 -1.65625 1.921875 -0.78125 C 2.625 -0.046875 3.53125 0.28125 4.71875 0.28125 C 6.9375 0.28125 8.1875 -0.90625 8.46875 -3.328125 L 7.265625 -3.328125 C 7.15625 -2.703125 7.03125 -2.28125 6.84375 -1.90625 C 6.46875 -1.15625 5.703125 -0.734375 4.71875 -0.734375 C 2.90625 -0.734375 1.765625 -2.1875 1.765625 -4.46875 C 1.765625 -6.796875 2.859375 -8.234375 4.625 -8.234375 C 5.359375 -8.234375 6.046875 -8.015625 6.421875 -7.65625 C 6.765625 -7.34375 6.953125 -6.96875 7.09375 -6.28125 Z M 8.28125 -6.28125 "/></symbol><symbol overflow="visible" id="pca-glyph0-13"><path style="stroke:none;" d="M 3.234375 -6.3125 L 3.234375 0 L 4.34375 0 L 4.34375 -8.859375 L 3.609375 -8.859375 C 3.21875 -7.5 2.96875 -7.3125 1.28125 -7.09375 L 1.28125 -6.3125 Z M 3.234375 -6.3125 "/></symbol><symbol overflow="visible" id="pca-glyph1-0"><path style="stroke:none;" d="M -3.859375 -2.296875 L -3.859375 -5.15625 C -3.859375 -5.875 -4.078125 -6.4375 -4.515625 -6.921875 C -5.015625 -7.46875 -5.59375 -7.71875 -6.4375 -7.71875 C -8.15625 -7.71875 -9.109375 -6.703125 -9.109375 -4.90625 L -9.109375 -1.140625 L 0 -1.140625 L 0 -2.296875 Z M -4.890625 -2.296875 L -8.09375 -2.296875 L -8.09375 -4.71875 C -8.09375 -5.84375 -7.484375 -6.5 -6.484375 -6.5 C -5.484375 -6.5 -4.890625 -5.84375 -4.890625 -4.71875 Z M -4.890625 -2.296875 "/></symbol><symbol overflow="visible" id="pca-glyph1-1"><path style="stroke:none;" d="M -6.28125 -8.28125 C -8.28125 -7.90625 -9.265625 -6.765625 -9.265625 -4.765625 C -9.265625 -3.53125 -8.875 -2.546875 -8.125 -1.875 C -7.21875 -1.046875 -5.921875 -0.59375 -4.453125 -0.59375 C -2.953125 -0.59375 -1.65625 -1.0625 -0.78125 -1.921875 C -0.046875 -2.625 0.28125 -3.53125 0.28125 -4.71875 C 0.28125 -6.9375 -0.90625 -8.1875 -3.328125 -8.46875 L -3.328125 -7.265625 C -2.703125 -7.15625 -2.28125 -7.03125 -1.90625 -6.84375 C -1.15625 -6.46875 -0.734375 -5.703125 -0.734375 -4.71875 C -0.734375 -2.90625 -2.1875 -1.765625 -4.46875 -1.765625 C -6.796875 -1.765625 -8.234375 -2.859375 -8.234375 -4.625 C -8.234375 -5.359375 -8.015625 -6.046875 -7.65625 -6.421875 C -7.34375 -6.765625 -6.96875 -6.953125 -6.28125 -7.09375 Z M -6.28125 -8.28125 "/></symbol><symbol overflow="visible" id="pca-glyph1-2"><path style="stroke:none;" d="M -1.09375 -6.328125 L -1.09375 -1.65625 C -1.8125 -1.78125 -2.28125 -2.171875 -2.90625 -3.265625 L -3.59375 -4.515625 C -4.265625 -5.75 -5.171875 -6.390625 -6.265625 -6.390625 C -7 -6.390625 -7.6875 -6.09375 -8.15625 -5.5625 C -8.640625 -5.03125 -8.859375 -4.390625 -8.859375 -3.546875 C -8.859375 -2.421875 -8.46875 -1.59375 -7.71875 -1.09375 C -7.234375 -0.78125 -6.6875 -0.65625 -5.78125 -0.625 L -5.78125 -1.71875 C -6.390625 -1.765625 -6.75 -1.84375 -7.03125 -1.984375 C -7.578125 -2.28125 -7.90625 -2.84375 -7.90625 -3.515625 C -7.90625 -4.515625 -7.1875 -5.265625 -6.234375 -5.265625 C -5.53125 -5.265625 -4.9375 -4.84375 -4.484375 -4.0625 L -3.84375 -2.90625 C -2.78125 -1.0625 -1.953125 -0.53125 0 -0.421875 L 0 -6.328125 Z M -1.09375 -6.328125 "/></symbol><symbol overflow="visible" id="pca-glyph2-0"><path style="stroke:none;" d="M 2.859375 -3.15625 L 0.46875 -3.15625 L 0.46875 -2.421875 L 2.859375 -2.421875 Z M 2.859375 -3.15625 "/></symbol><symbol overflow="visible" id="pca-glyph2-1"><path style="stroke:none;" d="M 2.609375 -5.09375 L 2.609375 0 L 3.5 0 L 3.5 -7.15625 L 2.921875 -7.15625 C 2.609375 -6.0625 2.40625 -5.90625 1.03125 -5.734375 L 1.03125 -5.09375 Z M 2.609375 -5.09375 "/></symbol><symbol overflow="visible" id="pca-glyph2-2"><path style="stroke:none;" d="M 2.78125 -7.15625 C 2.109375 -7.15625 1.5 -6.859375 1.125 -6.375 C 0.671875 -5.75 0.4375 -4.78125 0.4375 -3.46875 C 0.4375 -1.046875 1.234375 0.234375 2.78125 0.234375 C 4.296875 0.234375 5.125 -1.046875 5.125 -3.40625 C 5.125 -4.796875 4.890625 -5.71875 4.421875 -6.375 C 4.046875 -6.875 3.453125 -7.15625 2.78125 -7.15625 Z M 2.78125 -6.375 C 3.734375 -6.375 4.203125 -5.40625 4.203125 -3.484375 C 4.203125 -1.453125 3.75 -0.5 2.75 -0.5 C 1.8125 -0.5 1.34375 -1.5 1.34375 -3.453125 C 1.34375 -5.40625 1.8125 -6.375 2.78125 -6.375 Z M 2.78125 -6.375 "/></symbol><symbol overflow="visible" id="pca-glyph2-3"><path style="stroke:none;" d="M 4.796875 -7.15625 L 1.109375 -7.15625 L 0.578125 -3.265625 L 1.390625 -3.265625 C 1.8125 -3.75 2.15625 -3.921875 2.703125 -3.921875 C 3.65625 -3.921875 4.265625 -3.265625 4.265625 -2.203125 C 4.265625 -1.1875 3.671875 -0.5625 2.703125 -0.5625 C 1.921875 -0.5625 1.453125 -0.953125 1.234375 -1.75 L 0.359375 -1.75 C 0.46875 -1.171875 0.578125 -0.890625 0.78125 -0.625 C 1.1875 -0.078125 1.921875 0.234375 2.71875 0.234375 C 4.171875 0.234375 5.171875 -0.8125 5.171875 -2.328125 C 5.171875 -3.75 4.234375 -4.71875 2.859375 -4.71875 C 2.359375 -4.71875 1.953125 -4.578125 1.546875 -4.28125 L 1.828125 -6.28125 L 4.796875 -6.28125 Z M 4.796875 -7.15625 "/></symbol></g><clipPath id="pca-clip1"><path d="M 65.773438 58.988281 L 330.082031 58.988281 L 330.082031 343.871094 L 65.773438 343.871094 Z M 65.773438 58.988281 "/></clipPath></defs><g id="surface162"><path style="fill-rule:nonzero;fill:rgb(89.411765%,10.196078%,10.980392%);fill-opacity:1;stroke-width:1;stroke-linecap:round;stroke-linejoin:round;stroke:rgb(0%,0%,0%);stroke-opacity:1;stroke-miterlimit:10;" d="M 133.441406 6 L 168.191406 6 L 168.191406 17.988281 L 133.441406 17.988281 Z M 133.441406 6 "/><path style="fill-rule:nonzero;fill:rgb(21.568627%,49.411765%,72.156863%);fill-opacity:1;stroke-width:1;stroke-linecap:round;stroke-linejoin:round;stroke:rgb(0%,0%,0%);stroke-opacity:1;stroke-miterlimit:10;" d="M 133.441406 17.988281 L 168.191406 17.988281 L 168.191406 29.976562 L 133.441406 29.976562 Z M 133.441406 17.988281 "/><g style="fill:rgb(0%,0%,0%);fill-opacity:1;"><use xlink:href="#pca-glyph0-0" x="182.09375" y="16.550781"/><use xlink:href="#pca-glyph0-1" x="189.043777" y="16.550781"/><use xlink:href="#pca-glyph0-2" x="193.206299" y="16.550781"/><use xlink:href="#pca-glyph0-3" x="200.156326" y="16.550781"/><use xlink:href="#pca-glyph0-4" x="202.931335" y="16.550781"/></g><g style="fill:rgb(0%,0%,0%);fill-opacity:1;"><use xlink:href="#pca-glyph0-5" x="182.09375" y="28.539062"/><use xlink:href="#pca-glyph0-3" x="184.868759" y="28.539062"/><use xlink:href="#pca-glyph0-6" x="187.643768" y="28.539062"/><use xlink:href="#pca-glyph0-7" x="193.893799" y="28.539062"/><use xlink:href="#pca-glyph0-1" x="200.843826" y="28.539062"/><use xlink:href="#pca-glyph0-8" x="205.006348" y="28.539062"/><use xlink:href="#pca-glyph0-5" x="208.481354" y="28.539062"/><use xlink:href="#pca-glyph0-9" x="211.256363" y="28.539062"/><use xlink:href="#pca-glyph0-4" x="218.20639" y="28.539062"/><use xlink:href="#pca-glyph0-10" x="225.156418" y="28.539062"/></g><g style="fill:rgb(0%,0%,0%);fill-opacity:1;"><use xlink:href="#pca-glyph0-11" x="185.269531" y="382.347656"/><use xlink:href="#pca-glyph0-12" x="193.607056" y="382.347656"/><use xlink:href="#pca-glyph0-13" x="202.632095" y="382.347656"/></g><g style="fill:rgb(0%,0%,0%);fill-opacity:1;"><use xlink:href="#pca-glyph1-0" x="22.566406" y="213.085938"/><use xlink:href="#pca-glyph1-1" x="22.566406" y="204.748413"/><use xlink:href="#pca-glyph1-2" x="22.566406" y="195.723373"/></g><path style="fill:none;stroke-width:1;stroke-linecap:round;stroke-linejoin:round;stroke:rgb(0%,0%,0%);stroke-opacity:1;stroke-miterlimit:10;" d="M 81.828125 58.988281 L 81.828125 53.316406 "/><path style="fill:none;stroke-width:1;stroke-linecap:round;stroke-linejoin:round;stroke:rgb(0%,0%,0%);stroke-opacity:1;stroke-miterlimit:10;" d="M 138.566406 58.988281 L 138.566406 53.316406 "/><path style="fill:none;stroke-width:1;stroke-linecap:round;stroke-linejoin:round;stroke:rgb(0%,0%,0%);stroke-opacity:1;stroke-miterlimit:10;" d="M 195.304688 58.988281 L 195.304688 53.316406 "/><path style="fill:none;stroke-width:1;stroke-linecap:round;stroke-linejoin:round;stroke:rgb(0%,0%,0%);stroke-opacity:1;stroke-miterlimit:10;" d="M 252.046875 58.988281 L 252.046875 53.316406 "/><path style="fill:none;stroke-width:1;stroke-linecap:round;stroke-linejoin:round;stroke:rgb(0%,0%,0%);stroke-opacity:1;stroke-miterlimit:10;" d="M 308.785156 58.988281 L 308.785156 53.316406 "/><path style="fill:none;stroke-width:1;stroke-linecap:round;stroke-linejoin:round;stroke:rgb(0%,0%,0%);stroke-opacity:1;stroke-miterlimit:10;" d="M 65.773438 316.996094 L 60.101562 316.996094 "/><path style="fill:none;stroke-width:1;stroke-linecap:round;stroke-linejoin:round;stroke:rgb(0%,0%,0%);stroke-opacity:1;stroke-miterlimit:10;" d="M 65.773438 260.257812 L 60.101562 260.257812 "/><path style="fill:none;stroke-width:1;stroke-linecap:round;stroke-linejoin:round;stroke:rgb(0%,0%,0%);stroke-opacity:1;stroke-miterlimit:10;" d="M 65.773438 203.519531 L 60.101562 203.519531 "/><path style="fill:none;stroke-width:1;stroke-linecap:round;stroke-linejoin:round;stroke:rgb(0%,0%,0%);stroke-opacity:1;stroke-miterlimit:10;" d="M 65.773438 146.777344 L 60.101562 146.777344 "/><path style="fill:none;stroke-width:1;stroke-linecap:round;stroke-linejoin:round;stroke:rgb(0%,0%,0%);stroke-opacity:1;stroke-miterlimit:10;" d="M 65.773438 90.039062 L 60.101562 90.039062 "/><g style="fill:rgb(0%,0%,0%);fill-opacity:1;"><use xlink:href="#pca-glyph2-0" x="34.234375" y="320.675781"/><use xlink:href="#pca-glyph2-1" x="37.595581" y="320.675781"/><use xlink:href="#pca-glyph2-2" x="43.207672" y="320.675781"/><use xlink:href="#pca-glyph2-2" x="48.819763" y="320.675781"/></g><g style="fill:rgb(0%,0%,0%);fill-opacity:1;"><use xlink:href="#pca-glyph2-0" x="39.847656" y="263.9375"/><use xlink:href="#pca-glyph2-3" x="43.208862" y="263.9375"/><use xlink:href="#pca-glyph2-2" x="48.820953" y="263.9375"/></g><g style="fill:rgb(0%,0%,0%);fill-opacity:1;"><use xlink:href="#pca-glyph2-2" x="48.820312" y="207.199219"/></g><g style="fill:rgb(0%,0%,0%);fill-opacity:1;"><use xlink:href="#pca-glyph2-3" x="43.210938" y="150.457031"/><use xlink:href="#pca-glyph2-2" x="48.823029" y="150.457031"/></g><g style="fill:rgb(0%,0%,0%);fill-opacity:1;"><use xlink:href="#pca-glyph2-1" x="37.597656" y="93.71875"/><use xlink:href="#pca-glyph2-2" x="43.209747" y="93.71875"/><use xlink:href="#pca-glyph2-2" x="48.821838" y="93.71875"/></g><path style="fill:none;stroke-width:1;stroke-linecap:round;stroke-linejoin:round;stroke:rgb(0%,0%,0%);stroke-opacity:1;stroke-miterlimit:10;" d="M 81.828125 342.871094 L 81.828125 348.539062 "/><path style="fill:none;stroke-width:1;stroke-linecap:round;stroke-linejoin:round;stroke:rgb(0%,0%,0%);stroke-opacity:1;stroke-miterlimit:10;" d="M 138.566406 342.871094 L 138.566406 348.539062 "/><path style="fill:none;stroke-width:1;stroke-linecap:round;stroke-linejoin:round;stroke:rgb(0%,0%,0%);stroke-opacity:1;stroke-miterlimit:10;" d="M 195.304688 342.871094 L 195.304688 348.539062 "/><path style="fill:none;stroke-width:1;stroke-linecap:round;stroke-linejoin:round;stroke:rgb(0%,0%,0%);stroke-opacity:1;stroke-miterlimit:10;" d="M 252.046875 342.871094 L 252.046875 348.539062 "/><path style="fill:none;stroke-width:1;stroke-linecap:round;stroke-linejoin:round;stroke:rgb(0%,0%,0%);stroke-opacity:1;stroke-miterlimit:10;" d="M 308.785156 342.871094 L 308.785156 348.539062 "/><g style="fill:rgb(0%,0%,0%);fill-opacity:1;"><use xlink:href="#pca-glyph2-0" x="71.730469" y="361.566406"/><use xlink:href="#pca-glyph2-1" x="75.091675" y="361.566406"/><use xlink:href="#pca-glyph2-2" x="80.703766" y="361.566406"/><use xlink:href="#pca-glyph2-2" x="86.315857" y="361.566406"/></g><g style="fill:rgb(0%,0%,0%);fill-opacity:1;"><use xlink:href="#pca-glyph2-0" x="131.273438" y="361.566406"/><use xlink:href="#pca-glyph2-3" x="134.634644" y="361.566406"/><use xlink:href="#pca-glyph2-2" x="140.246735" y="361.566406"/></g><g style="fill:rgb(0%,0%,0%);fill-opacity:1;"><use xlink:href="#pca-glyph2-2" x="192.5" y="361.566406"/></g><g style="fill:rgb(0%,0%,0%);fill-opacity:1;"><use xlink:href="#pca-glyph2-3" x="246.433594" y="361.566406"/><use xlink:href="#pca-glyph2-2" x="252.045685" y="361.566406"/></g><g style="fill:rgb(0%,0%,0%);fill-opacity:1;"><use xlink:href="#pca-glyph2-1" x="300.367188" y="361.566406"/><use xlink:href="#pca-glyph2-2" x="305.979279" y="361.566406"/><use xlink:href="#pca-glyph2-2" x="311.59137" y="361.566406"/></g><path style="fill:none;stroke-width:1;stroke-linecap:round;stroke-linejoin:round;stroke:rgb(0%,0%,0%);stroke-opacity:1;stroke-miterlimit:10;" d="M 329.082031 316.996094 L 334.75 316.996094 "/><path style="fill:none;stroke-width:1;stroke-linecap:round;stroke-linejoin:round;stroke:rgb(0%,0%,0%);stroke-opacity:1;stroke-miterlimit:10;" d="M 329.082031 260.257812 L 334.75 260.257812 "/><path style="fill:none;stroke-width:1;stroke-linecap:round;stroke-linejoin:round;stroke:rgb(0%,0%,0%);stroke-opacity:1;stroke-miterlimit:10;" d="M 329.082031 203.519531 L 334.75 203.519531 "/><path style="fill:none;stroke-width:1;stroke-linecap:round;stroke-linejoin:round;stroke:rgb(0%,0%,0%);stroke-opacity:1;stroke-miterlimit:10;" d="M 329.082031 146.777344 L 334.75 146.777344 "/><path style="fill:none;stroke-width:1;stroke-linecap:round;stroke-linejoin:round;stroke:rgb(0%,0%,0%);stroke-opacity:1;stroke-miterlimit:10;" d="M 329.082031 90.039062 L 334.75 90.039062 "/><g clip-path="url(#pca-clip1)" clip-rule="nonzero" type="plot-region" class="plot-region"><path d="M 126.113281 110.773438 C 126.113281 115.4375 119.113281 115.4375 119.113281 110.773438 C 119.113281 106.105469 126.113281 106.105469 126.113281 110.773438 " type="plot-point" class="aqm1" onclick="plotObjRespond('click', 1, 'pca')" onmouseover="plotObjRespond('show', 1, 'pca')" onmouseout="plotObjRespond('hide', 1, 'pca')" fill-rule="nonzero" fill="rgb(89.411765%,10.196078%,10.980392%)" fill-opacity="1" stroke-width="1" stroke-linecap="round" stroke-linejoin="round" stroke="rgb(89.411765%,10.196078%,10.980392%)" stroke-opacity="1" stroke-miterlimit="10"/><path d="M 140.140625 97.691406 C 140.140625 102.359375 133.140625 102.359375 133.140625 97.691406 C 133.140625 93.027344 140.140625 93.027344 140.140625 97.691406 " type="plot-point" class="aqm2" onclick="plotObjRespond('click', 2, 'pca')" onmouseover="plotObjRespond('show', 2, 'pca')" onmouseout="plotObjRespond('hide', 2, 'pca')" fill-rule="nonzero" fill="rgb(89.411765%,10.196078%,10.980392%)" fill-opacity="1" stroke-width="1" stroke-linecap="round" stroke-linejoin="round" stroke="rgb(89.411765%,10.196078%,10.980392%)" stroke-opacity="1" stroke-miterlimit="10"/><path d="M 109.269531 101.808594 C 109.269531 106.476562 102.269531 106.476562 102.269531 101.808594 C 102.269531 97.140625 109.269531 97.140625 109.269531 101.808594 " type="plot-point" class="aqm3" onclick="plotObjRespond('click', 3, 'pca')" onmouseover="plotObjRespond('show', 3, 'pca')" onmouseout="plotObjRespond('hide', 3, 'pca')" fill-rule="nonzero" fill="rgb(89.411765%,10.196078%,10.980392%)" fill-opacity="1" stroke-width="1" stroke-linecap="round" stroke-linejoin="round" stroke="rgb(89.411765%,10.196078%,10.980392%)" stroke-opacity="1" stroke-miterlimit="10"/><path d="M 142.6875 80.304688 C 142.6875 84.96875 135.6875 84.96875 135.6875 80.304688 C 135.6875 75.636719 142.6875 75.636719 142.6875 80.304688 " type="plot-point" class="aqm4" onclick="plotObjRespond('click', 4, 'pca')" onmouseover="plotObjRespond('show', 4, 'pca')" onmouseout="plotObjRespond('hide', 4, 'pca')" fill-rule="nonzero" fill="rgb(89.411765%,10.196078%,10.980392%)" fill-opacity="1" stroke-width="1" stroke-linecap="round" stroke-linejoin="round" stroke="rgb(89.411765%,10.196078%,10.980392%)" stroke-opacity="1" stroke-miterlimit="10"/><path d="M 140.273438 76.417969 C 140.273438 81.085938 133.273438 81.085938 133.273438 76.417969 C 133.273438 71.75 140.273438 71.75 140.273438 76.417969 " type="plot-point" class="aqm5" onclick="plotObjRespond('click', 5, 'pca')" onmouseover="plotObjRespond('show', 5, 'pca')" onmouseout="plotObjRespond('hide', 5, 'pca')" fill-rule="nonzero" fill="rgb(89.411765%,10.196078%,10.980392%)" fill-opacity="1" stroke-width="1" stroke-linecap="round" stroke-linejoin="round" stroke="rgb(89.411765%,10.196078%,10.980392%)" stroke-opacity="1" stroke-miterlimit="10"/><path d="M 101.988281 192.257812 C 101.988281 196.921875 94.988281 196.921875 94.988281 192.257812 C 94.988281 187.589844 101.988281 187.589844 101.988281 192.257812 " type="plot-point" class="aqm6" onclick="plotObjRespond('click', 6, 'pca')" onmouseover="plotObjRespond('show', 6, 'pca')" onmouseout="plotObjRespond('hide', 6, 'pca')" fill-rule="nonzero" fill="rgb(89.411765%,10.196078%,10.980392%)" fill-opacity="1" stroke-width="1" stroke-linecap="round" stroke-linejoin="round" stroke="rgb(89.411765%,10.196078%,10.980392%)" stroke-opacity="1" stroke-miterlimit="10"/><path d="M 132.152344 169.074219 C 132.152344 173.742188 125.152344 173.742188 125.152344 169.074219 C 125.152344 164.410156 132.152344 164.410156 132.152344 169.074219 " type="plot-point" class="aqm7" onclick="plotObjRespond('click', 7, 'pca')" onmouseover="plotObjRespond('show', 7, 'pca')" onmouseout="plotObjRespond('hide', 7, 'pca')" fill-rule="nonzero" fill="rgb(89.411765%,10.196078%,10.980392%)" fill-opacity="1" stroke-width="1" stroke-linecap="round" stroke-linejoin="round" stroke="rgb(89.411765%,10.196078%,10.980392%)" stroke-opacity="1" stroke-miterlimit="10"/><path d="M 111.503906 185.207031 C 111.503906 189.875 104.503906 189.875 104.503906 185.207031 C 104.503906 180.539062 111.503906 180.539062 111.503906 185.207031 " type="plot-point" class="aqm8" onclick="plotObjRespond('click', 8, 'pca')" onmouseover="plotObjRespond('show', 8, 'pca')" onmouseout="plotObjRespond('hide', 8, 'pca')" fill-rule="nonzero" fill="rgb(89.411765%,10.196078%,10.980392%)" fill-opacity="1" stroke-width="1" stroke-linecap="round" stroke-linejoin="round" stroke="rgb(89.411765%,10.196078%,10.980392%)" stroke-opacity="1" stroke-miterlimit="10"/><path d="M 100.230469 190.578125 C 100.230469 195.246094 93.230469 195.246094 93.230469 190.578125 C 93.230469 185.914062 100.230469 185.914062 100.230469 190.578125 " type="plot-point" class="aqm9" onclick="plotObjRespond('click', 9, 'pca')" onmouseover="plotObjRespond('show', 9, 'pca')" onmouseout="plotObjRespond('hide', 9, 'pca')" fill-rule="nonzero" fill="rgb(89.411765%,10.196078%,10.980392%)" fill-opacity="1" stroke-width="1" stroke-linecap="round" stroke-linejoin="round" stroke="rgb(89.411765%,10.196078%,10.980392%)" stroke-opacity="1" stroke-miterlimit="10"/><path d="M 127.960938 190.25 C 127.960938 194.914062 120.960938 194.914062 120.960938 190.25 C 120.960938 185.582031 127.960938 185.582031 127.960938 190.25 " type="plot-point" class="aqm10" onclick="plotObjRespond('click', 10, 'pca')" onmouseover="plotObjRespond('show', 10, 'pca')" onmouseout="plotObjRespond('hide', 10, 'pca')" fill-rule="nonzero" fill="rgb(89.411765%,10.196078%,10.980392%)" fill-opacity="1" stroke-width="1" stroke-linecap="round" stroke-linejoin="round" stroke="rgb(89.411765%,10.196078%,10.980392%)" stroke-opacity="1" stroke-miterlimit="10"/><path d="M 85.441406 325.4375 C 85.441406 330.105469 78.441406 330.105469 78.441406 325.4375 C 78.441406 320.773438 85.441406 320.773438 85.441406 325.4375 " type="plot-point" class="aqm11" onclick="plotObjRespond('click', 11, 'pca')" onmouseover="plotObjRespond('show', 11, 'pca')" onmouseout="plotObjRespond('hide', 11, 'pca')" fill-rule="nonzero" fill="rgb(89.411765%,10.196078%,10.980392%)" fill-opacity="1" stroke-width="1" stroke-linecap="round" stroke-linejoin="round" stroke="rgb(89.411765%,10.196078%,10.980392%)" stroke-opacity="1" stroke-miterlimit="10"/><path d="M 93.335938 313.984375 C 93.335938 318.648438 86.335938 318.648438 86.335938 313.984375 C 86.335938 309.316406 93.335938 309.316406 93.335938 313.984375 " type="plot-point" class="aqm12" onclick="plotObjRespond('click', 12, 'pca')" onmouseover="plotObjRespond('show', 12, 'pca')" onmouseout="plotObjRespond('hide', 12, 'pca')" fill-rule="nonzero" fill="rgb(89.411765%,10.196078%,10.980392%)" fill-opacity="1" stroke-width="1" stroke-linecap="round" stroke-linejoin="round" stroke="rgb(89.411765%,10.196078%,10.980392%)" stroke-opacity="1" stroke-miterlimit="10"/><path d="M 105.011719 304.019531 C 105.011719 308.6875 98.011719 308.6875 98.011719 304.019531 C 98.011719 299.355469 105.011719 299.355469 105.011719 304.019531 " type="plot-point" class="aqm13" onclick="plotObjRespond('click', 13, 'pca')" onmouseover="plotObjRespond('show', 13, 'pca')" onmouseout="plotObjRespond('hide', 13, 'pca')" fill-rule="nonzero" fill="rgb(89.411765%,10.196078%,10.980392%)" fill-opacity="1" stroke-width="1" stroke-linecap="round" stroke-linejoin="round" stroke="rgb(89.411765%,10.196078%,10.980392%)" stroke-opacity="1" stroke-miterlimit="10"/><path d="M 86.734375 307.539062 C 86.734375 312.203125 79.734375 312.203125 79.734375 307.539062 C 79.734375 302.871094 86.734375 302.871094 86.734375 307.539062 " type="plot-point" class="aqm14" onclick="plotObjRespond('click', 14, 'pca')" onmouseover="plotObjRespond('show', 14, 'pca')" onmouseout="plotObjRespond('hide', 14, 'pca')" fill-rule="nonzero" fill="rgb(89.411765%,10.196078%,10.980392%)" fill-opacity="1" stroke-width="1" stroke-linecap="round" stroke-linejoin="round" stroke="rgb(89.411765%,10.196078%,10.980392%)" stroke-opacity="1" stroke-miterlimit="10"/><path d="M 90.6875 313.371094 C 90.6875 318.039062 83.6875 318.039062 83.6875 313.371094 C 83.6875 308.703125 90.6875 308.703125 90.6875 313.371094 " type="plot-point" class="aqm15" onclick="plotObjRespond('click', 15, 'pca')" onmouseover="plotObjRespond('show', 15, 'pca')" onmouseout="plotObjRespond('hide', 15, 'pca')" fill-rule="nonzero" fill="rgb(89.411765%,10.196078%,10.980392%)" fill-opacity="1" stroke-width="1" stroke-linecap="round" stroke-linejoin="round" stroke="rgb(89.411765%,10.196078%,10.980392%)" stroke-opacity="1" stroke-miterlimit="10"/><path d="M 288.105469 105.984375 C 288.105469 110.652344 281.105469 110.652344 281.105469 105.984375 C 281.105469 101.316406 288.105469 101.316406 288.105469 105.984375 " type="plot-point" class="aqm16" onclick="plotObjRespond('click', 16, 'pca')" onmouseover="plotObjRespond('show', 16, 'pca')" onmouseout="plotObjRespond('hide', 16, 'pca')" fill-rule="nonzero" fill="rgb(21.568627%,49.411765%,72.156863%)" fill-opacity="1" stroke-width="1" stroke-linecap="round" stroke-linejoin="round" stroke="rgb(21.568627%,49.411765%,72.156863%)" stroke-opacity="1" stroke-miterlimit="10"/><path d="M 277.625 113.339844 C 277.625 118.003906 270.625 118.003906 270.625 113.339844 C 270.625 108.671875 277.625 108.671875 277.625 113.339844 " type="plot-point" class="aqm17" onclick="plotObjRespond('click', 17, 'pca')" onmouseover="plotObjRespond('show', 17, 'pca')" onmouseout="plotObjRespond('hide', 17, 'pca')" fill-rule="nonzero" fill="rgb(21.568627%,49.411765%,72.156863%)" fill-opacity="1" stroke-width="1" stroke-linecap="round" stroke-linejoin="round" stroke="rgb(21.568627%,49.411765%,72.156863%)" stroke-opacity="1" stroke-miterlimit="10"/><path d="M 255.996094 127.292969 C 255.996094 131.960938 248.996094 131.960938 248.996094 127.292969 C 248.996094 122.628906 255.996094 122.628906 255.996094 127.292969 " type="plot-point" class="aqm18" onclick="plotObjRespond('click', 18, 'pca')" onmouseover="plotObjRespond('show', 18, 'pca')" onmouseout="plotObjRespond('hide', 18, 'pca')" fill-rule="nonzero" fill="rgb(21.568627%,49.411765%,72.156863%)" fill-opacity="1" stroke-width="1" stroke-linecap="round" stroke-linejoin="round" stroke="rgb(21.568627%,49.411765%,72.156863%)" stroke-opacity="1" stroke-miterlimit="10"/><path d="M 290.5 121.625 C 290.5 126.289062 283.5 126.289062 283.5 121.625 C 283.5 116.957031 290.5 116.957031 290.5 121.625 " type="plot-point" class="aqm19" onclick="plotObjRespond('click', 19, 'pca')" onmouseover="plotObjRespond('show', 19, 'pca')" onmouseout="plotObjRespond('hide', 19, 'pca')" fill-rule="nonzero" fill="rgb(21.568627%,49.411765%,72.156863%)" fill-opacity="1" stroke-width="1" stroke-linecap="round" stroke-linejoin="round" stroke="rgb(21.568627%,49.411765%,72.156863%)" stroke-opacity="1" stroke-miterlimit="10"/><path d="M 277.71875 119.65625 C 277.71875 124.324219 270.71875 124.324219 270.71875 119.65625 C 270.71875 114.992188 277.71875 114.992188 277.71875 119.65625 " type="plot-point" class="aqm20" onclick="plotObjRespond('click', 20, 'pca')" onmouseover="plotObjRespond('show', 20, 'pca')" onmouseout="plotObjRespond('hide', 20, 'pca')" fill-rule="nonzero" fill="rgb(21.568627%,49.411765%,72.156863%)" fill-opacity="1" stroke-width="1" stroke-linecap="round" stroke-linejoin="round" stroke="rgb(21.568627%,49.411765%,72.156863%)" stroke-opacity="1" stroke-miterlimit="10"/><path d="M 281.863281 235.914062 C 281.863281 240.582031 274.863281 240.582031 274.863281 235.914062 C 274.863281 231.25 281.863281 231.25 281.863281 235.914062 " type="plot-point" class="aqm21" onclick="plotObjRespond('click', 21, 'pca')" onmouseover="plotObjRespond('show', 21, 'pca')" onmouseout="plotObjRespond('hide', 21, 'pca')" fill-rule="nonzero" fill="rgb(21.568627%,49.411765%,72.156863%)" fill-opacity="1" stroke-width="1" stroke-linecap="round" stroke-linejoin="round" stroke="rgb(21.568627%,49.411765%,72.156863%)" stroke-opacity="1" stroke-miterlimit="10"/><path d="M 307.046875 217.910156 C 307.046875 222.578125 300.046875 222.578125 300.046875 217.910156 C 300.046875 213.246094 307.046875 213.246094 307.046875 217.910156 " type="plot-point" class="aqm22" onclick="plotObjRespond('click', 22, 'pca')" onmouseover="plotObjRespond('show', 22, 'pca')" onmouseout="plotObjRespond('hide', 22, 'pca')" fill-rule="nonzero" fill="rgb(21.568627%,49.411765%,72.156863%)" fill-opacity="1" stroke-width="1" stroke-linecap="round" stroke-linejoin="round" stroke="rgb(21.568627%,49.411765%,72.156863%)" stroke-opacity="1" stroke-miterlimit="10"/><path d="M 316.414062 218.335938 C 316.414062 223.003906 309.414062 223.003906 309.414062 218.335938 C 309.414062 213.671875 316.414062 213.671875 316.414062 218.335938 " type="plot-point" class="aqm23" onclick="plotObjRespond('click', 23, 'pca')" onmouseover="plotObjRespond('show', 23, 'pca')" onmouseout="plotObjRespond('hide', 23, 'pca')" fill-rule="nonzero" fill="rgb(21.568627%,49.411765%,72.156863%)" fill-opacity="1" stroke-width="1" stroke-linecap="round" stroke-linejoin="round" stroke="rgb(21.568627%,49.411765%,72.156863%)" stroke-opacity="1" stroke-miterlimit="10"/><path d="M 300.027344 221.757812 C 300.027344 226.421875 293.027344 226.421875 293.027344 221.757812 C 293.027344 217.089844 300.027344 217.089844 300.027344 221.757812 " type="plot-point" class="aqm24" onclick="plotObjRespond('click', 24, 'pca')" onmouseover="plotObjRespond('show', 24, 'pca')" onmouseout="plotObjRespond('hide', 24, 'pca')" fill-rule="nonzero" fill="rgb(21.568627%,49.411765%,72.156863%)" fill-opacity="1" stroke-width="1" stroke-linecap="round" stroke-linejoin="round" stroke="rgb(21.568627%,49.411765%,72.156863%)" stroke-opacity="1" stroke-miterlimit="10"/><path d="M 314.433594 225.390625 C 314.433594 230.058594 307.433594 230.058594 307.433594 225.390625 C 307.433594 220.726562 314.433594 220.726562 314.433594 225.390625 " type="plot-point" class="aqm25" onclick="plotObjRespond('click', 25, 'pca')" onmouseover="plotObjRespond('show', 25, 'pca')" onmouseout="plotObjRespond('hide', 25, 'pca')" fill-rule="nonzero" fill="rgb(21.568627%,49.411765%,72.156863%)" fill-opacity="1" stroke-width="1" stroke-linecap="round" stroke-linejoin="round" stroke="rgb(21.568627%,49.411765%,72.156863%)" stroke-opacity="1" stroke-miterlimit="10"/><path d="M 295.023438 304.566406 C 295.023438 309.234375 288.023438 309.234375 288.023438 304.566406 C 288.023438 299.902344 295.023438 299.902344 295.023438 304.566406 " type="plot-point" class="aqm26" onclick="plotObjRespond('click', 26, 'pca')" onmouseover="plotObjRespond('show', 26, 'pca')" onmouseout="plotObjRespond('hide', 26, 'pca')" fill-rule="nonzero" fill="rgb(21.568627%,49.411765%,72.156863%)" fill-opacity="1" stroke-width="1" stroke-linecap="round" stroke-linejoin="round" stroke="rgb(21.568627%,49.411765%,72.156863%)" stroke-opacity="1" stroke-miterlimit="10"/><path d="M 277.128906 306.050781 C 277.128906 310.71875 270.128906 310.71875 270.128906 306.050781 C 270.128906 301.382812 277.128906 301.382812 277.128906 306.050781 " type="plot-point" class="aqm27" onclick="plotObjRespond('click', 27, 'pca')" onmouseover="plotObjRespond('show', 27, 'pca')" onmouseout="plotObjRespond('hide', 27, 'pca')" fill-rule="nonzero" fill="rgb(21.568627%,49.411765%,72.156863%)" fill-opacity="1" stroke-width="1" stroke-linecap="round" stroke-linejoin="round" stroke="rgb(21.568627%,49.411765%,72.156863%)" stroke-opacity="1" stroke-miterlimit="10"/><path d="M 295.34375 306.074219 C 295.34375 310.742188 288.34375 310.742188 288.34375 306.074219 C 288.34375 301.410156 295.34375 301.410156 295.34375 306.074219 " type="plot-point" class="aqm28" onclick="plotObjRespond('click', 28, 'pca')" onmouseover="plotObjRespond('show', 28, 'pca')" onmouseout="plotObjRespond('hide', 28, 'pca')" fill-rule="nonzero" fill="rgb(21.568627%,49.411765%,72.156863%)" fill-opacity="1" stroke-width="1" stroke-linecap="round" stroke-linejoin="round" stroke="rgb(21.568627%,49.411765%,72.156863%)" stroke-opacity="1" stroke-miterlimit="10"/><path d="M 294.625 319.414062 C 294.625 324.082031 287.625 324.082031 287.625 319.414062 C 287.625 314.75 294.625 314.75 294.625 319.414062 " type="plot-point" class="aqm29" onclick="plotObjRespond('click', 29, 'pca')" onmouseover="plotObjRespond('show', 29, 'pca')" onmouseout="plotObjRespond('hide', 29, 'pca')" fill-rule="nonzero" fill="rgb(21.568627%,49.411765%,72.156863%)" fill-opacity="1" stroke-width="1" stroke-linecap="round" stroke-linejoin="round" stroke="rgb(21.568627%,49.411765%,72.156863%)" stroke-opacity="1" stroke-miterlimit="10"/></g><path style="fill:none;stroke-width:1;stroke-linecap:round;stroke-linejoin:round;stroke:rgb(0%,0%,0%);stroke-opacity:1;stroke-miterlimit:10;" d="M 65.773438 58.988281 L 329.082031 58.988281 L 329.082031 342.871094 L 65.773438 342.871094 Z M 65.773438 58.988281 "/></g></svg>
